<svg t="1739049308180" class="icon" viewBox="0 0 1024 1024" version="1.1" xmlns="http://www.w3.org/2000/svg" p-id="5323" width="200" height="200"><path d="M81.7152 512h-30.72 30.72z m860.6208 0h0zM512 81.664v-30.72 30.72zM331.776 699.0336a30.72 30.72 0 1 0 61.44 0h-61.44z m30.72-336.5888v-30.72a30.72 30.72 0 0 0-30.72 30.72h30.72z m37.0688 0l25.088-17.664a30.72 30.72 0 0 0-25.088-13.056v30.72z m330.24 522.5984a30.72 30.72 0 1 0 50.2272-35.328l-50.2272 35.328zM673.536 362.4448a30.72 30.72 0 1 0-61.44 0h61.44z m-61.44 195.84a30.72 30.72 0 1 0 61.44 0h-61.44zM50.944 512c0 122.2656 48.64 239.5648 135.0656 325.9904l43.4688-43.4176A399.616 399.616 0 0 1 112.4352 512h-61.44z m135.0656 325.9904A461.056 461.056 0 0 0 512 973.056v-61.44a399.616 399.616 0 0 1-282.5216-117.0432l-43.4688 43.4176zM512 973.056a461.056 461.056 0 0 0 326.0416-135.0656l-43.4688-43.4176A399.5648 399.5648 0 0 1 512 911.616v61.44z m326.0416-135.0656A461.056 461.056 0 0 0 973.056 512h-61.44c0 105.984-42.0864 207.616-117.0432 282.5728l43.4688 43.4176zM973.056 512a461.056 461.056 0 0 0-135.0144-325.9904l-43.4688 43.4176A399.616 399.616 0 0 1 911.616 512h61.44z m-135.0144-325.9904A461.056 461.056 0 0 0 512 50.944v61.44c105.984 0 207.616 42.1376 282.5728 117.0432l43.4688-43.4176zM512 50.944a461.056 461.056 0 0 0-325.9904 135.0656l43.4688 43.4176A399.616 399.616 0 0 1 512 112.384v-61.44zM186.0096 186.0096A461.056 461.056 0 0 0 50.9952 512h61.44c0-105.984 42.0864-207.616 117.0432-282.5728l-43.4688-43.4176z m207.1552 513.024V362.496h-61.44v336.5888h61.44z m-30.72-305.8688h37.12v-61.44h-37.12v61.44z m11.9808-13.056l355.328 504.9344 50.2784-35.328-355.328-504.9344-50.2784 35.328z m237.6704-17.664v195.84h61.44V362.4448h-61.44z" p-id="5324" fill="#42b883"></path></svg>